<?xml version="1.0" standalone="no"?>
<!DOCTYPE svg PUBLIC "-//W3C//DTD SVG 20010904//EN"
 "http://www.w3.org/TR/2001/REC-SVG-20010904/DTD/svg10.dtd">
<svg version="1.0" xmlns="http://www.w3.org/2000/svg"
 width="496.000000pt" height="503.000000pt" viewBox="0 0 496.000000 503.000000"
 preserveAspectRatio="xMidYMid meet">

<g transform="translate(0.000000,503.000000) scale(0.100000,-0.100000)"
fill="#000000" stroke="none">
<path d="M2206 4515 c-54 -19 -106 -64 -133 -115 -30 -56 -32 -165 -4 -225 92
-202 393 -183 456 29 19 63 19 90 0 154 -39 132 -187 204 -319 157z m130 -34
c137 -62 170 -319 51 -391 -42 -26 -112 -26 -153 -1 -146 89 -151 358 -8 401
44 13 65 11 110 -9z"/>
<path d="M2822 4494 l27 -29 -40 -139 c-41 -145 -46 -186 -28 -233 24 -63 97
-111 183 -120 64 -6 131 26 160 75 10 18 37 97 60 175 l41 142 35 5 c42 6 34
12 -45 34 -105 30 -103 30 -68 -1 l33 -28 -41 -139 c-22 -77 -47 -152 -55
-167 -39 -77 -143 -80 -212 -6 -44 47 -40 85 29 319 18 63 21 67 57 75 l37 9
-70 21 c-38 12 -83 25 -100 29 l-30 7 27 -29z"/>
<path d="M1720 4395 c-61 -32 -63 -34 -32 -35 27 0 32 -4 32 -23 0 -27 -21
-190 -25 -195 -6 -6 -195 93 -195 102 0 5 7 18 17 28 9 10 14 20 12 22 -2 2
-42 -16 -89 -40 -68 -34 -79 -43 -57 -43 15 -1 84 -31 153 -67 l125 -66 41
-83 41 -82 -22 -32 c-12 -17 -20 -31 -17 -31 11 0 176 85 176 90 0 3 -16 4
-35 2 l-35 -4 -41 87 -42 86 18 127 c10 75 25 140 36 160 10 17 15 32 11 32
-4 -1 -36 -16 -72 -35z"/>
<path d="M3511 4248 c-48 -107 -48 -120 -1 -68 23 25 50 57 60 71 l20 27 -25
16 -26 17 -28 -63z"/>
<path d="M3752 4090 c21 -56 23 -52 -123 -204 -78 -81 -147 -145 -153 -143
-60 22 -59 17 6 -49 68 -68 86 -77 70 -33 -8 21 -1 33 54 94 l64 70 24 -25 24
-25 -26 -128 -27 -127 43 -43 43 -42 -6 35 c-4 20 1 78 10 130 27 162 21 149
59 138 69 -21 136 13 152 78 8 33 -12 85 -50 130 -44 52 -172 163 -164 144z
m118 -152 c39 -53 39 -91 1 -129 -44 -43 -105 -35 -155 20 l-20 22 64 64 c36
36 68 65 72 65 4 0 21 -19 38 -42z"/>
<path d="M880 3768 c-132 -169 -128 -162 -99 -152 13 4 31 8 39 8 8 0 84 -54
167 -119 l153 -120 -6 -40 c-5 -40 -5 -40 13 -18 60 73 113 143 108 143 -3 0
-20 -7 -36 -16 -33 -17 -19 -25 -162 88 l-21 16 35 46 c32 44 36 47 72 42 21
-2 37 -1 35 4 -5 13 -118 102 -118 92 0 -5 5 -23 11 -40 10 -29 8 -35 -26 -77
l-37 -45 -59 47 c-32 25 -63 51 -69 58 -6 8 7 31 42 74 l51 63 51 -5 51 -6
-45 39 c-25 22 -47 39 -50 39 -3 0 -48 -54 -100 -121z"/>
<path d="M4198 3575 c-3 -37 -3 -37 -180 -132 l-178 -95 -26 21 c-15 12 -29
20 -31 18 -3 -4 162 -324 174 -336 2 -3 32 9 66 26 l62 32 -60 0 -60 1 -42 79
c-24 43 -43 83 -43 89 0 10 145 92 162 92 4 0 19 -23 34 -52 25 -49 25 -53 10
-85 -9 -18 -13 -33 -11 -33 10 0 99 48 120 64 19 15 18 15 -20 16 -39 0 -42 2
-68 56 -16 31 -27 57 -25 59 11 8 144 75 150 75 4 0 25 -34 47 -76 l39 -76
-28 -41 c-16 -23 -27 -44 -25 -45 6 -7 105 51 105 60 0 8 -156 305 -166 317
-1 1 -4 -14 -6 -34z"/>
<path d="M613 3336 c-52 -116 -51 -113 -15 -86 l31 23 185 -84 185 -83 3 -36
c3 -34 4 -33 41 44 20 43 37 83 37 88 0 5 -12 1 -27 -10 l-28 -19 -180 81
c-171 78 -180 83 -186 115 -4 17 -8 34 -10 36 -2 1 -18 -29 -36 -69z"/>
<path d="M2209 3315 c-225 -36 -453 -120 -630 -230 -159 -100 -367 -302 -418
-407 -105 -218 -35 -416 232 -649 219 -191 475 -318 767 -380 91 -20 134 -23
320 -23 240 0 330 13 526 79 262 87 533 268 706 469 112 132 150 243 129 376
-17 103 -60 178 -170 292 -231 241 -490 383 -838 459 -128 27 -491 36 -624 14z
m524 -75 c287 -49 542 -169 770 -364 63 -54 179 -191 205 -243 l21 -41 -52 20
c-52 20 -187 50 -187 41 0 -2 17 -11 38 -19 77 -32 158 -77 185 -102 26 -25
28 -32 25 -82 -2 -30 -14 -77 -27 -104 -28 -56 -175 -214 -270 -288 -36 -29
-74 -60 -83 -69 -25 -25 -152 -99 -207 -120 -25 -9 -80 -31 -121 -47 -338
-136 -769 -134 -1110 4 -36 14 -86 34 -111 43 -54 21 -182 95 -207 119 -9 10
-50 44 -90 76 -100 81 -235 227 -263 284 -12 26 -24 72 -27 103 -4 53 -3 57
29 84 35 29 183 105 206 105 7 0 13 4 13 9 0 12 -122 -12 -188 -37 l-52 -20
25 46 c35 64 146 188 236 263 229 193 505 312 814 352 95 12 321 6 428 -13z"/>
<path d="M1470 2256 c46 -47 86 -86 87 -86 2 0 3 11 3 24 0 18 -19 37 -87 86
l-88 62 85 -86z"/>
<path d="M3483 2278 c-66 -48 -83 -65 -83 -85 0 -25 1 -24 45 16 44 41 131
132 124 130 -2 0 -41 -28 -86 -61z"/>
<path d="M1761 2089 c2 -65 12 -81 74 -116 212 -118 510 -178 764 -154 187 19
339 60 481 132 104 52 108 56 116 118 7 54 7 54 -17 47 -199 -55 -310 -74
-526 -87 -315 -19 -589 8 -870 87 -21 6 -23 3 -22 -27z"/>
<path d="M552 2499 c-34 -28 -60 -55 -57 -60 9 -14 131 -99 142 -99 13 0 143
100 143 109 0 13 -130 101 -148 101 -9 -1 -45 -23 -80 -51z"/>
<path d="M4245 2504 c-33 -25 -60 -49 -60 -54 0 -12 123 -110 139 -110 20 0
147 100 141 110 -14 22 -125 100 -142 99 -10 0 -45 -20 -78 -45z"/>
<path d="M824 1738 c-104 -60 -192 -113 -196 -117 -4 -3 -3 -12 1 -20 7 -10
46 9 172 82 90 52 165 92 167 88 1 -5 -36 -106 -83 -225 -81 -203 -94 -251
-70 -251 16 0 394 219 395 228 1 27 -48 8 -195 -77 -91 -52 -165 -92 -165 -88
0 4 41 108 90 231 90 226 97 246 82 255 -4 2 -93 -45 -198 -106z"/>
<path d="M4305 1699 c-9 -13 -6 -16 28 -24 32 -8 37 9 8 25 -25 13 -28 13 -36
-1z"/>
<path d="M3661 1428 c-81 -90 -117 -136 -110 -143 7 -7 28 9 64 48 30 31 57
57 61 57 7 0 121 -101 247 -218 54 -50 71 -61 82 -52 15 12 -2 30 -207 215
l-98 87 40 48 c22 26 46 53 55 60 15 12 12 30 -5 30 -4 0 -62 -60 -129 -132z"/>
<path d="M4230 1540 c0 -9 31 -30 44 -30 13 0 5 28 -10 34 -23 9 -34 7 -34 -4z"/>
<path d="M4146 1395 c-7 -18 32 -41 46 -27 6 6 0 15 -16 25 -21 14 -25 14 -30
2z"/>
<path d="M1230 1321 c-98 -35 -160 -125 -160 -234 0 -60 11 -87 55 -136 101
-111 294 -72 361 74 88 187 -65 363 -256 296z m170 -43 c59 -41 75 -72 75
-147 0 -57 -4 -74 -28 -109 -70 -107 -210 -135 -291 -59 -123 117 -22 336 155
337 42 0 64 -6 89 -22z"/>
<path d="M3390 1184 c-67 -29 -120 -96 -120 -151 0 -37 34 -90 66 -105 27 -13
44 -9 196 37 69 21 103 14 123 -25 21 -41 19 -64 -11 -100 -36 -42 -95 -71
-160 -77 -34 -4 -54 -11 -54 -18 0 -20 22 -24 73 -14 59 11 98 31 147 75 51
46 66 90 47 136 -34 79 -87 90 -216 44 -41 -14 -87 -26 -103 -26 -54 0 -91 65
-66 116 19 42 88 85 142 91 30 4 46 10 46 19 0 19 -65 18 -110 -2z"/>
<path d="M1646 1113 c-14 -14 -2 -24 70 -57 65 -30 74 -38 66 -53 -50 -96
-171 -366 -167 -374 18 -28 18 -26 161 279 23 50 48 92 54 92 6 0 37 -13 70
-30 66 -33 80 -36 80 -16 0 7 -42 32 -92 56 -51 23 -125 57 -165 76 -39 18
-74 30 -77 27z"/>
<path d="M2915 958 c-49 -17 -91 -32 -93 -33 -7 -6 135 -428 146 -433 25 -9
25 8 -1 88 -17 57 -22 83 -14 86 7 2 38 13 70 24 l59 20 76 -65 c69 -58 112
-80 112 -57 0 4 -34 36 -76 71 l-76 63 28 29 c37 39 44 119 15 167 -27 42 -77
72 -121 71 -19 0 -75 -14 -125 -31z m184 -24 c43 -36 58 -89 37 -137 -16 -40
-37 -52 -147 -87 l-59 -18 -30 98 c-16 53 -30 102 -30 108 0 12 133 60 172 61
15 1 40 -10 57 -25z"/>
<path d="M2237 858 c-14 -123 -30 -398 -24 -404 3 -4 13 -4 22 -1 11 5 15 22
15 69 0 35 3 80 7 102 l6 38 109 -7 c92 -6 108 -4 108 8 0 12 -23 16 -111 22
l-111 7 6 46 c3 24 6 65 6 90 l0 45 135 -7 c115 -7 135 -5 135 7 0 11 -22 16
-97 21 -54 4 -121 9 -149 12 l-51 6 -6 -54z"/>
<path d="M2647 902 c-3 -4 6 -97 19 -207 13 -110 23 -210 24 -222 0 -16 6 -23
21 -23 18 0 20 4 14 43 -10 73 -45 388 -45 403 0 15 -25 20 -33 6z"/>
</g>
</svg>
