<?xml version="1.0" standalone="no"?>
<!DOCTYPE svg PUBLIC "-//W3C//DTD SVG 20010904//EN"
 "http://www.w3.org/TR/2001/REC-SVG-20010904/DTD/svg10.dtd">
<svg version="1.0" xmlns="http://www.w3.org/2000/svg"
 width="3997.000000pt" height="4000.000000pt" viewBox="0 0 3997.000000 4000.000000"
 preserveAspectRatio="xMidYMid meet">

<g transform="translate(0.000000,4000.000000) scale(0.100000,-0.100000)"
fill="#000000" stroke="none">
<path d="M19870 36619 c-568 -6 -844 -12 -862 -20 -14 -6 -32 -23 -38 -39 -17
-41 5 -2492 23 -2529 26 -54 -4 -53 954 -44 957 9 918 6 942 60 15 32 14 331
0 372 -6 17 -20 36 -31 42 -14 8 -218 11 -664 10 l-644 -2 0 304 0 304 577 8
c465 6 583 10 605 21 41 21 50 69 46 234 -4 158 -11 182 -61 199 -18 7 -234 8
-603 4 l-574 -6 0 295 0 295 46 7 c26 3 297 6 603 6 352 0 570 4 593 10 63 18
68 33 68 223 0 200 -8 230 -67 246 -21 6 -47 10 -58 9 -11 -1 -396 -5 -855 -9z"/>
<path d="M17660 36492 c-79 -11 -369 -77 -392 -88 -15 -8 -34 -27 -42 -43 -8
-15 -108 -338 -222 -717 -113 -379 -209 -695 -213 -702 -5 -9 -170 177 -482
541 -457 535 -516 597 -565 597 -43 0 -387 -80 -410 -95 -55 -36 -65 24 210
-1261 142 -660 262 -1214 267 -1232 8 -23 22 -38 46 -50 33 -16 40 -15 171 12
259 53 275 58 304 87 18 17 28 38 28 56 0 16 -72 361 -160 768 -87 406 -158
740 -157 741 1 1 133 -154 292 -344 160 -190 316 -374 349 -409 81 -87 100
-92 246 -59 103 23 118 29 147 60 18 19 35 45 38 58 41 161 285 979 289 968 3
-8 73 -330 156 -715 83 -385 156 -719 162 -743 12 -47 47 -82 85 -82 13 0 114
20 225 45 111 25 203 45 205 45 12 0 37 59 35 84 -3 36 -511 2400 -523 2433
-10 27 -55 50 -89 45z"/>
<path d="M22525 36409 c-212 -21 -409 -108 -554 -244 -154 -143 -262 -354
-320 -620 -48 -218 -111 -626 -118 -750 -23 -491 211 -834 684 -998 381 -133
782 -127 1072 17 218 107 381 298 445 518 41 141 33 147 -260 199 -140 25
-241 38 -262 34 -34 -6 -55 -32 -105 -131 -30 -59 -113 -154 -162 -184 -67
-41 -132 -55 -265 -54 -106 1 -137 5 -205 27 -96 32 -156 68 -219 133 -121
126 -141 275 -86 615 99 606 154 767 300 874 80 59 148 78 275 78 125 0 201
-16 310 -68 141 -66 228 -194 249 -369 11 -88 24 -120 56 -139 45 -27 477
-102 506 -88 46 21 55 50 55 179 0 145 -23 247 -80 367 -165 339 -542 557
-1046 605 -122 11 -153 11 -270 -1z"/>
<path d="M25101 35803 c-14 -12 -175 -404 -476 -1161 -250 -629 -458 -1154
-461 -1168 -9 -36 13 -80 49 -98 18 -8 118 -49 224 -91 207 -81 226 -84 263
-38 11 14 100 227 197 475 159 400 180 449 198 445 17 -4 926 -365 932 -371 1
-1 -81 -212 -182 -469 -138 -347 -184 -474 -179 -492 9 -37 40 -54 252 -138
228 -91 266 -95 299 -32 33 61 915 2294 915 2317 2 55 -20 69 -236 156 -215
85 -262 96 -294 64 -10 -10 -99 -220 -197 -466 -99 -245 -182 -445 -186 -444
-3 2 -216 86 -473 188 -256 102 -466 190 -466 196 0 6 79 206 175 445 96 239
175 448 175 465 0 16 -9 40 -20 51 -23 26 -419 183 -459 183 -16 0 -38 -8 -50
-17z"/>
<path d="M12650 34864 c-377 -55 -785 -308 -952 -590 -163 -276 -157 -542 18
-805 57 -86 133 -156 220 -201 119 -62 169 -73 344 -73 177 1 241 11 543 85
279 68 367 83 477 84 112 1 155 -12 204 -60 49 -48 69 -96 69 -174 1 -80 -32
-149 -108 -222 -154 -150 -380 -247 -552 -236 -65 4 -87 12 -179 58 -82 42
-111 51 -137 47 -47 -8 -416 -206 -434 -233 -19 -30 -11 -63 27 -118 47 -67
91 -108 167 -159 142 -94 246 -122 458 -121 123 0 167 4 245 23 313 77 674
285 858 494 201 228 277 462 227 702 -27 130 -108 277 -205 375 -190 192 -452
219 -935 95 -356 -91 -570 -121 -666 -95 -85 24 -151 97 -171 190 -9 46 -8 64
6 113 48 164 348 336 546 312 68 -8 131 -35 176 -75 33 -28 53 -35 99 -30 29
2 406 200 433 227 40 40 28 86 -48 169 -95 105 -224 172 -400 210 -59 12 -264
17 -330 8z"/>
<path d="M28799 34041 c-14 -5 -414 -294 -890 -643 -475 -349 -945 -694 -1044
-767 -99 -72 -192 -145 -207 -162 -34 -36 -36 -70 -5 -103 38 -43 377 -256
406 -256 33 0 68 22 277 172 l162 116 133 -88 c74 -49 274 -180 445 -293 l311
-204 -48 -219 c-52 -234 -57 -278 -35 -310 25 -35 379 -264 408 -264 15 0 38
10 52 23 24 20 51 131 321 1297 162 701 295 1290 295 1308 0 19 -7 46 -16 61
-19 33 -467 327 -509 334 -16 3 -42 2 -56 -2z m-131 -1190 c-73 -303 -136
-551 -139 -551 -18 0 -649 424 -642 431 22 21 907 678 910 675 2 -2 -56 -252
-129 -555z"/>
<path d="M10426 33608 c-18 -10 -414 -321 -1066 -837 -157 -124 -291 -232
-297 -241 -20 -24 -27 -61 -16 -90 5 -14 230 -305 498 -646 269 -340 608 -770
753 -954 145 -184 276 -345 291 -357 58 -51 32 -68 783 523 381 300 699 551
706 558 8 8 16 31 19 52 5 38 0 46 -97 169 -120 154 -132 165 -176 165 -39 0
-10 22 -600 -446 -357 -283 -439 -343 -449 -332 -34 36 -365 459 -365 466 1 4
201 165 446 357 245 193 452 359 460 370 27 38 17 79 -38 152 -139 184 -159
202 -208 203 -31 0 -87 -41 -490 -360 -250 -198 -457 -360 -460 -359 -7 0
-359 452 -360 462 0 4 208 172 462 373 255 201 476 378 492 394 23 22 29 37
28 65 -1 21 -5 42 -10 49 -113 145 -207 258 -222 266 -24 13 -60 12 -84 -2z"/>
<path d="M30187 31803 c-1162 -1173 -1071 -1077 -1071 -1118 0 -33 13 -49 150
-186 157 -158 191 -184 227 -174 12 4 266 251 565 548 360 360 541 534 537
517 -39 -174 -355 -1762 -357 -1794 -2 -61 20 -91 176 -238 187 -178 152 -185
426 90 961 962 1550 1563 1556 1586 3 14 1 40 -6 56 -15 35 -293 308 -328 321
-13 5 -34 6 -47 3 -12 -3 -273 -257 -579 -564 -306 -307 -555 -551 -552 -542
2 10 93 430 202 934 136 636 194 925 190 945 -5 18 -61 81 -155 176 -143 143
-149 147 -190 147 l-42 0 -702 -707z"/>
<path d="M8102 31628 c-12 -6 -75 -72 -140 -147 -163 -188 -166 -192 -158
-235 6 -32 66 -87 600 -548 327 -282 591 -514 587 -516 -4 -1 -428 58 -944
133 -680 98 -943 132 -961 125 -13 -5 -39 -24 -58 -42 -66 -67 -227 -265 -238
-292 -23 -60 -124 32 1759 -1592 147 -127 172 -140 220 -115 17 9 278 308 294
338 5 8 6 30 3 49 -6 29 -76 94 -581 530 -316 274 -574 498 -572 500 1 1 413
-52 916 -118 780 -103 919 -119 951 -109 31 9 61 39 161 157 68 80 131 159
139 175 13 27 12 33 -4 63 -15 27 -660 591 -1739 1519 -166 142 -181 150 -235
125z"/>
<path d="M33035 30162 c-64 -40 -1952 -1455 -1977 -1483 -51 -54 -44 -74 106
-275 138 -185 160 -211 186 -214 54 -8 -8 -52 1345 960 380 284 697 525 707
536 17 20 21 35 19 71 -1 21 -248 360 -287 395 -31 27 -66 30 -99 10z"/>
<path d="M6163 29230 c-25 -10 -39 -30 -156 -235 -92 -162 -102 -188 -93 -238
3 -18 145 -266 314 -552 l308 -520 -620 -5 c-496 -4 -626 -8 -647 -19 -19 -9
-60 -72 -136 -205 -60 -105 -113 -199 -116 -208 -9 -25 12 -77 36 -90 15 -8
296 -14 942 -22 l920 -12 335 -191 c411 -234 416 -236 446 -229 37 10 58 38
171 240 111 198 118 221 85 264 -9 12 -181 116 -381 230 l-364 208 -134 220
c-794 1304 -841 1377 -881 1373 -4 0 -17 -4 -29 -9z"/>
<path d="M33580 28589 c-212 -25 -334 -76 -795 -332 -226 -126 -328 -195 -432
-291 -227 -213 -336 -504 -293 -786 27 -177 63 -287 151 -460 202 -400 483
-641 823 -707 142 -27 327 -5 476 57 64 27 90 52 90 88 0 31 -210 419 -244
451 -28 26 -64 29 -152 11 -136 -28 -260 -10 -350 51 -93 63 -200 209 -245
334 -17 46 -22 84 -23 165 -1 103 0 107 38 183 31 61 53 91 110 141 89 78 122
100 321 213 234 133 448 240 540 270 66 22 99 27 185 27 96 1 110 -2 165 -28
38 -19 86 -56 131 -100 57 -57 81 -91 123 -176 58 -119 76 -193 68 -295 -8
-103 -52 -188 -153 -296 -56 -60 -70 -92 -59 -136 11 -44 225 -422 245 -433
35 -19 67 -10 137 39 255 179 387 484 353 816 -22 223 -96 432 -230 650 -193
316 -452 502 -755 544 -86 12 -117 12 -225 0z"/>
<path d="M23315 28113 c-143 -6 -602 -45 -763 -64 -187 -22 -166 -11 -246
-129 -137 -202 -237 -482 -283 -789 -23 -155 -23 -551 0 -736 46 -366 138
-729 277 -1087 23 -60 45 -108 48 -108 4 0 54 27 112 61 1152 668 2493 1316
3533 1706 241 90 656 231 832 283 99 29 186 56 193 60 9 4 -9 24 -56 63 -505
408 -1409 666 -2582 737 -147 9 -885 11 -1065 3z"/>
<path d="M19885 27451 c-598 -203 -1067 -398 -1605 -667 -342 -171 -485 -250
-813 -446 -1152 -689 -2135 -1536 -2963 -2553 -1326 -1627 -2175 -3404 -2474
-5173 -28 -163 -29 -180 -20 -310 29 -415 95 -791 205 -1172 107 -371 219
-661 451 -1168 l38 -83 61 178 c64 185 131 356 208 531 l46 102 -19 44 c-36
86 -89 263 -105 356 -34 197 -20 325 53 464 63 121 105 112 148 -33 32 -107
75 -231 80 -231 2 0 20 33 40 73 20 39 56 106 80 148 l43 76 -30 92 c-42 132
-62 259 -57 372 3 89 6 101 50 191 52 108 108 178 143 178 38 0 71 -52 115
-182 22 -68 46 -136 53 -152 l12 -29 99 147 c64 95 97 152 93 163 -3 10 -22
62 -42 117 -63 174 -93 421 -59 489 20 40 159 183 197 203 60 32 80 6 148
-192 27 -80 56 -159 65 -175 l15 -30 56 73 c31 40 92 117 135 170 l79 98 -39
107 c-44 119 -65 205 -82 330 -14 105 -3 134 88 226 127 129 200 140 252 36
12 -22 40 -96 64 -165 24 -69 47 -128 51 -132 4 -4 18 7 32 23 14 17 87 97
161 179 l136 148 -14 32 c-7 17 -35 96 -63 176 -44 128 -51 157 -55 248 -6
140 7 173 112 277 93 92 145 123 182 106 36 -16 60 -62 105 -201 22 -69 54
-155 72 -193 l32 -67 213 212 213 212 -50 110 c-120 265 -162 434 -130 524 14
40 187 198 246 224 50 22 91 18 135 -14 40 -28 72 -87 117 -218 22 -63 52
-145 68 -182 l29 -67 160 142 c89 78 195 171 236 206 l75 65 -45 130 c-79 234
-102 398 -68 480 19 45 132 165 195 206 105 70 152 26 234 -220 25 -74 56
-161 71 -193 l25 -58 173 138 c95 76 232 185 304 241 l131 103 -82 177 c-126
271 -135 313 -91 409 41 88 162 199 290 267 95 51 137 29 186 -96 36 -90 204
-443 237 -495 l20 -33 180 134 c502 372 1000 726 1483 1056 140 95 257 175
259 177 2 1 -23 67 -57 145 -213 498 -333 919 -403 1408 -30 211 -38 658 -15
870 43 396 147 752 321 1098 40 78 72 142 71 142 0 -1 -131 -45 -291 -99z"/>
<path d="M27345 26799 c-16 -5 -117 -27 -223 -49 -892 -188 -2203 -730 -3642
-1505 -431 -232 -910 -505 -910 -518 0 -19 172 -311 276 -469 345 -526 704
-908 1279 -1363 1077 -853 2175 -1353 3148 -1434 157 -13 554 -15 562 -2 17
29 119 601 159 901 115 850 123 1651 26 2420 -65 509 -200 1048 -375 1491 -70
176 -244 539 -259 538 -6 0 -24 -5 -41 -10z"/>
<path d="M5784 25950 c-1345 -30 -1281 -26 -1319 -83 -27 -41 -185 -517 -185
-556 0 -23 8 -48 19 -63 23 -29 2012 -1667 2047 -1686 33 -17 80 -7 99 21 20
32 144 396 147 432 1 17 -6 44 -16 60 -10 17 -96 95 -192 175 -96 80 -174 147
-174 149 0 4 342 995 345 999 2 1 108 7 238 12 256 9 284 16 311 68 7 15 44
116 82 226 63 186 67 200 53 225 -22 39 -56 51 -139 50 -41 -1 -633 -14 -1316
-29z m266 -530 c0 -11 -248 -721 -254 -727 -2 -3 -203 156 -446 352 -242 197
-438 360 -435 364 4 3 223 8 488 11 265 3 519 6 565 8 48 1 82 -2 82 -8z"/>
<path d="M32982 25427 c-33 -35 -28 -70 34 -265 67 -210 84 -245 121 -260 15
-7 131 -18 256 -26 126 -8 232 -18 237 -22 7 -9 312 -975 314 -999 0 -7 -71
-70 -159 -140 -202 -162 -224 -182 -230 -219 -4 -22 14 -93 60 -239 36 -115
65 -211 65 -213 0 -14 64 -40 86 -36 35 6 2093 1599 2122 1642 12 18 22 44 22
56 0 31 -157 532 -176 561 -34 53 10 50 -1347 118 -700 36 -1297 65 -1328 65
-45 0 -60 -4 -77 -23z m1881 -584 c229 -9 416 -20 415 -25 -6 -16 -902 -688
-909 -681 -8 9 -229 707 -229 724 0 13 -37 14 723 -18z"/>
<path d="M3784 23439 c-42 -8 -54 -17 -65 -46 -14 -37 -71 -452 -64 -472 3
-10 16 -27 28 -39 20 -19 80 -30 500 -89 400 -57 477 -70 477 -83 0 -21 -139
-992 -142 -996 -2 -1 -208 27 -458 62 -250 35 -469 64 -486 64 -37 0 -79 -30
-87 -62 -4 -13 -20 -119 -36 -236 -28 -194 -29 -217 -16 -243 10 -19 27 -32
53 -39 40 -11 2417 -350 2457 -350 13 0 36 10 50 23 26 21 29 36 61 255 31
210 33 236 19 261 -8 16 -27 33 -42 39 -15 6 -242 41 -503 78 -261 36 -477 68
-479 70 -6 5 128 974 137 995 6 14 61 8 487 -52 264 -38 490 -68 502 -69 12 0
33 10 48 23 23 20 28 39 56 222 16 110 30 219 30 243 1 52 -20 87 -58 97 -79
20 -2443 350 -2469 344z"/>
<path d="M20234 23262 c-464 -314 -904 -624 -1386 -979 l-277 -204 19 -32 c10
-18 55 -97 100 -177 46 -80 105 -177 132 -217 61 -89 70 -132 38 -197 -29 -60
-115 -136 -209 -185 -101 -52 -161 -68 -201 -51 -42 17 -117 103 -196 221 -36
54 -68 99 -70 99 -2 0 -605 -480 -624 -497 -8 -7 42 -93 99 -173 130 -180 154
-235 131 -304 -26 -78 -192 -186 -298 -194 -51 -3 -62 0 -104 28 -54 36 -151
137 -214 222 l-43 58 -224 -197 -224 -197 26 -41 c14 -22 48 -71 75 -108 52
-72 86 -150 86 -195 0 -48 -48 -128 -111 -187 -100 -92 -176 -118 -246 -82
-39 21 -118 108 -169 186 -21 33 -42 61 -45 61 -4 0 -105 -96 -224 -213 l-218
-212 74 -100 c100 -134 114 -165 114 -245 0 -60 -3 -70 -37 -116 -47 -64 -132
-124 -186 -131 -67 -9 -142 33 -237 132 l-81 83 -65 -71 c-128 -141 -289 -328
-289 -335 0 -4 32 -50 71 -102 96 -129 118 -169 125 -224 13 -93 -95 -256
-180 -271 -57 -11 -112 23 -221 137 -81 84 -98 98 -108 85 -105 -133 -277
-366 -277 -374 0 -6 36 -51 81 -99 172 -190 182 -230 87 -377 -85 -133 -218
-126 -369 20 -40 38 -73 63 -77 57 -31 -35 -222 -352 -222 -368 0 -7 43 -59
95 -115 98 -107 135 -166 135 -218 0 -71 -68 -197 -125 -233 -69 -43 -160 -17
-269 76 l-76 64 -24 -47 c-13 -27 -47 -99 -75 -162 l-51 -113 35 -48 c19 -26
72 -81 118 -123 46 -42 94 -96 107 -120 35 -66 22 -87 -82 -137 -161 -78 -242
-50 -463 162 l-81 77 -66 -167 c-86 -215 -158 -429 -209 -615 l-41 -147 32
-58 c99 -176 376 -568 559 -792 438 -536 987 -1040 1546 -1422 675 -461 1404
-799 2183 -1012 359 -98 313 -93 578 -62 1854 217 3805 1013 5445 2221 1141
841 2058 1818 2736 2915 456 738 763 1347 1130 2236 3 8 -28 14 -99 18 -518
34 -1053 120 -1603 257 -1218 305 -2313 792 -2970 1323 -349 282 -731 665
-1075 1076 -319 382 -718 964 -925 1348 -15 28 -31 52 -35 52 -4 0 -119 -76
-256 -168z"/>
<path d="M35060 22694 c-646 -79 -1190 -146 -1209 -149 -48 -9 -81 -46 -81
-91 0 -73 201 -1688 213 -1713 22 -47 62 -51 253 -26 175 23 205 33 223 71 7
16 -9 179 -61 613 -40 325 -70 593 -67 595 2 2 456 59 1009 125 626 75 1017
127 1038 136 56 26 57 37 24 300 -28 230 -30 239 -56 262 -20 17 -38 23 -69
22 -23 -1 -571 -66 -1217 -145z"/>
<path d="M5222 15910 c-650 -213 -1192 -395 -1202 -405 -28 -25 -25 -66 9
-166 41 -120 50 -136 83 -150 28 -11 68 0 525 150 272 89 496 161 498 159 2
-2 86 -256 188 -565 101 -310 192 -574 201 -588 22 -33 67 -33 168 1 98 32
122 51 122 95 0 19 -82 285 -183 593 -101 307 -179 562 -174 566 4 4 192 69
416 143 273 91 409 132 412 124 9 -27 291 -886 342 -1041 31 -93 64 -177 74
-187 25 -25 59 -24 152 7 97 32 130 59 129 103 0 17 -109 363 -242 769 -253
775 -257 783 -313 781 -12 0 -554 -175 -1205 -389z"/>
<path d="M11965 16015 c11 -113 56 -390 96 -586 73 -364 176 -735 288 -1037
65 -175 172 -434 177 -429 2 2 -3 48 -11 103 -37 248 -44 610 -15 846 l9 77
-90 153 c-113 194 -299 560 -379 748 -85 200 -81 194 -75 125z"/>
<path d="M35803 15800 c-12 -5 -28 -22 -36 -37 -8 -15 -101 -291 -207 -613
-106 -322 -194 -586 -195 -588 -2 -2 -479 155 -1062 347 -582 193 -1070 351
-1084 351 -14 0 -35 -10 -47 -23 -22 -23 -92 -214 -92 -248 0 -38 23 -69 64
-83 181 -66 2348 -776 2369 -776 15 0 33 10 45 25 18 22 493 1439 508 1512 10
48 -24 77 -129 112 -100 34 -102 34 -134 21z"/>
<path d="M12860 14261 c0 -319 45 -629 130 -894 68 -212 60 -200 216 -319 609
-461 1316 -781 2111 -957 118 -26 417 -82 433 -81 3 1 -40 18 -95 39 -899 342
-1832 1123 -2655 2221 -72 96 -133 176 -136 179 -2 2 -4 -82 -4 -188z"/>
<path d="M6120 13504 c-696 -85 -1275 -156 -1288 -159 -36 -9 -62 -41 -62 -77
0 -43 98 -225 131 -245 23 -14 52 -13 325 20 164 20 302 33 306 29 4 -4 135
-250 292 -547 279 -528 285 -540 267 -560 -46 -51 -339 -393 -359 -419 -12
-16 -22 -40 -22 -53 0 -14 25 -73 55 -133 61 -118 86 -140 138 -121 15 6 369
402 893 1000 477 545 874 1000 882 1012 32 46 19 86 -91 287 -58 105 -80 123
-154 121 -26 -1 -617 -71 -1313 -155z m1112 -261 c-32 -38 -243 -278 -468
-534 -225 -256 -413 -466 -418 -468 -10 -3 -479 879 -471 887 5 5 1340 177
1399 181 13 1 2 -17 -42 -66z"/>
<path d="M34943 13362 c-13 -2 -31 -14 -40 -26 -10 -12 -146 -271 -303 -574
-157 -303 -288 -552 -292 -552 -4 0 -451 229 -992 509 -541 280 -994 512
-1005 516 -45 14 -79 -20 -137 -137 -59 -121 -64 -144 -35 -174 10 -11 515
-278 1123 -592 775 -401 1115 -572 1137 -572 18 0 38 8 47 19 9 10 179 331
377 712 235 454 359 704 359 723 -1 38 -25 62 -105 103 -86 43 -106 50 -134
45z"/>
<path d="M8407 11966 c-20 -14 -208 -163 -419 -333 -211 -170 -635 -511 -943
-757 -308 -247 -568 -457 -577 -468 -32 -36 -22 -71 43 -155 75 -96 106 -123
141 -123 28 0 32 3 1107 868 220 177 401 320 401 317 0 -2 -157 -490 -349
-1082 -192 -593 -350 -1087 -351 -1098 -5 -47 3 -66 59 -137 89 -113 123 -134
172 -108 18 10 1710 1365 1882 1507 80 68 97 97 79 138 -21 45 -127 173 -158
191 -28 15 -34 15 -61 2 -25 -12 -819 -645 -1350 -1075 l-152 -123 19 58 c10
31 172 523 359 1092 186 569 340 1044 341 1055 5 42 -2 56 -71 145 -61 79 -97
110 -128 110 -5 0 -24 -11 -44 -24z"/>
<path d="M31257 11684 c-31 -17 -215 -256 -224 -292 -3 -13 1 -41 10 -62 21
-56 1374 -2241 1403 -2267 47 -43 91 -26 154 59 25 34 56 76 69 94 43 60 36
78 -121 334 -80 129 -149 244 -155 255 -12 21 -33 -9 519 716 l217 286 293
-83 c256 -74 297 -83 321 -73 16 7 59 53 103 112 81 107 86 128 45 170 -18 19
-2543 767 -2585 767 -12 -1 -33 -8 -49 -16z m879 -570 l672 -198 -191 -250
c-104 -138 -242 -320 -305 -403 -63 -84 -117 -153 -121 -153 -3 0 -13 10 -20
23 -142 224 -725 1166 -729 1176 -4 10 -1 13 9 9 8 -3 316 -95 685 -204z"/>
<path d="M10044 10079 c-12 -4 -54 -44 -93 -88 -69 -79 -81 -104 -65 -145 3
-8 131 -127 285 -262 245 -217 277 -250 265 -263 -7 -9 -340 -384 -740 -834
-399 -450 -729 -829 -732 -843 -12 -45 5 -72 92 -146 131 -112 146 -116 207
-54 18 17 344 385 726 816 382 432 704 795 715 808 l21 22 160 -141 c416 -368
405 -359 442 -359 29 0 43 10 99 68 82 86 101 124 83 163 -8 16 -86 93 -174
171 -799 713 -1220 1081 -1243 1087 -15 5 -37 5 -48 0z"/>
<path d="M29940 10009 c-129 -34 -213 -79 -360 -197 -122 -98 -827 -743 -838
-767 -9 -20 -9 -32 1 -55 6 -16 185 -222 397 -457 212 -234 580 -643 818 -907
239 -265 448 -491 465 -504 35 -25 65 -23 103 6 59 46 836 756 883 808 96 105
154 212 192 354 23 83 27 226 9 305 -35 156 -137 325 -257 427 -135 114 -263
162 -438 163 -60 0 -129 -4 -152 -8 l-43 -9 16 44 c24 69 30 231 9 307 -59
225 -252 420 -486 491 -87 26 -217 26 -319 -1z m257 -370 c78 -40 151 -117
196 -209 29 -59 32 -73 32 -160 0 -87 -3 -101 -32 -160 -17 -36 -57 -93 -88
-127 -49 -55 -533 -501 -574 -529 -14 -10 -57 33 -287 288 l-271 301 263 238
c311 281 345 309 428 349 129 61 225 64 333 9z m734 -795 c66 -19 110 -45 169
-98 118 -105 165 -215 158 -368 -5 -115 -38 -194 -118 -281 -40 -44 -388 -364
-586 -540 l-22 -19 -303 337 c-167 185 -304 340 -304 344 0 9 509 469 587 532
50 39 142 87 193 100 54 13 170 9 226 -7z"/>
<path d="M27879 8442 c-200 -126 -557 -349 -793 -497 -235 -148 -435 -279
-443 -292 -9 -13 -13 -33 -9 -45 10 -41 111 -192 138 -207 36 -20 33 -22 392
204 164 103 299 185 301 183 2 -1 267 -424 590 -938 322 -514 595 -943 607
-952 37 -32 75 -22 185 48 103 65 130 96 120 134 -2 8 -270 439 -595 957 -326
519 -592 946 -592 950 1 5 138 93 307 198 168 104 314 201 324 214 29 36 24
59 -32 148 -52 85 -89 123 -119 123 -10 0 -181 -103 -381 -228z"/>
<path d="M12315 8242 c-51 -32 -2068 -1542 -2102 -1574 -40 -38 -49 -72 -28
-105 9 -13 58 -51 108 -84 138 -88 118 -94 407 121 133 99 245 178 249 176
157 -98 1028 -649 1032 -654 3 -4 -18 -131 -47 -282 -58 -301 -61 -326 -39
-357 19 -27 206 -143 231 -143 32 0 59 26 72 67 14 43 510 2534 512 2573 6 77
-5 89 -181 201 -133 85 -162 93 -214 61z m-105 -1092 c-77 -382 -142 -695
-143 -697 -4 -3 -826 513 -845 531 -10 10 98 96 554 440 312 234 569 425 571
423 2 -2 -60 -316 -137 -697z"/>
<path d="M25645 7199 c-204 -28 -422 -110 -596 -224 -90 -59 -252 -221 -298
-298 -153 -259 -159 -581 -15 -963 55 -148 222 -551 256 -619 87 -172 231
-352 361 -450 106 -81 268 -138 422 -151 326 -26 854 206 1043 461 207 277
222 579 51 1056 -64 179 -183 460 -256 602 -182 356 -447 562 -750 582 -43 3
-96 7 -118 9 -22 2 -67 -1 -100 -5z m236 -357 c126 -45 253 -151 336 -280 73
-113 231 -473 318 -722 120 -346 97 -580 -77 -766 -139 -148 -335 -234 -533
-234 -171 0 -293 48 -408 159 -120 115 -204 267 -345 621 -133 334 -158 422
-168 585 -20 315 172 548 531 646 93 25 263 21 346 -9z"/>
<path d="M14184 7170 c-91 -13 -140 -28 -233 -71 -253 -118 -414 -459 -345
-733 44 -176 192 -355 494 -596 328 -263 459 -390 513 -500 27 -56 32 -75 32
-140 0 -98 -32 -169 -112 -249 -82 -82 -145 -105 -283 -105 -123 0 -239 28
-389 92 -136 59 -197 99 -277 179 -110 111 -153 214 -154 366 0 78 -15 129
-42 140 -184 77 -215 88 -244 82 -40 -7 -51 -20 -70 -86 -25 -84 -21 -225 11
-332 30 -105 46 -138 116 -237 136 -195 368 -351 672 -454 136 -46 239 -66
374 -73 323 -17 557 108 692 367 103 196 111 394 23 567 -69 134 -204 271
-517 523 -228 184 -399 353 -443 436 -42 81 -51 159 -27 240 69 243 280 325
588 227 197 -62 346 -169 425 -306 37 -64 53 -138 50 -229 -4 -116 2 -124 146
-182 64 -25 124 -46 134 -46 54 0 87 91 86 240 0 115 -25 204 -92 335 -39 75
-64 107 -152 195 -136 136 -279 220 -505 298 -143 49 -340 71 -471 52z"/>
<path d="M15989 6545 c-15 -8 -29 -26 -33 -39 -7 -29 -6 -33 316 -1015 l240
-733 -96 -441 c-64 -292 -95 -450 -91 -469 9 -39 34 -53 145 -76 152 -33 149
-33 181 -3 27 25 34 50 125 466 87 398 99 443 123 470 16 17 286 309 602 650
316 341 582 631 592 645 22 31 22 62 -1 89 -12 16 -46 29 -120 47 -113 26
-153 29 -182 14 -11 -6 -243 -247 -516 -536 -273 -289 -500 -521 -504 -517 -6
7 -265 765 -433 1266 -28 86 -45 122 -63 133 -21 14 -219 65 -248 64 -6 -1
-23 -7 -37 -15z"/>
<path d="M22870 6356 c-299 -44 -519 -144 -687 -315 -161 -162 -244 -387 -244
-661 -1 -158 8 -224 82 -593 95 -479 178 -683 353 -877 44 -49 173 -144 226
-167 197 -84 411 -105 651 -63 601 107 899 425 899 959 0 220 -107 785 -199
1051 -93 272 -231 449 -443 568 -161 92 -413 130 -638 98z m245 -321 c128 -20
212 -64 301 -157 117 -121 169 -229 233 -483 110 -440 149 -784 107 -943 -27
-106 -74 -188 -152 -266 -194 -195 -538 -260 -779 -148 -217 102 -322 276
-409 678 -131 604 -137 781 -36 990 69 143 180 235 352 295 139 47 244 57 383
34z"/>
<path d="M20308 6030 c-722 -19 -709 -17 -723 -73 -9 -36 54 -2517 65 -2537
18 -34 63 -43 187 -35 105 7 118 9 141 32 l25 25 -6 207 c-4 113 -10 348 -13
522 l-7 317 124 6 c68 3 337 10 597 16 260 6 483 15 495 19 44 17 50 35 48
142 -1 55 -6 111 -11 124 -19 49 -12 49 -652 35 -329 -7 -601 -10 -604 -7 -10
9 -29 856 -20 864 4 5 296 15 649 24 l641 17 24 27 c22 27 23 34 20 137 -3
106 -4 111 -31 134 -34 29 13 29 -949 4z"/>
</g>
</svg>
